<?xml version="1.0" encoding="utf-8"?>
<!-- Generator: Adobe Illustrator 22.0.0, SVG Export Plug-In . SVG Version: 6.00 Build 0)  -->
<svg version="1.1" id="Layer_1" xmlns="http://www.w3.org/2000/svg" xmlns:xlink="http://www.w3.org/1999/xlink" x="0px" y="0px"
	 viewBox="0 0 225.4 75.3" style="enable-background:new 0 0 225.4 75.3;" xml:space="preserve">
<style type="text/css">
	.logol0{fill:#D8D8D8;}
	.logol1{fill:#EE5586;}
	.logol2{fill:#212122;}
</style>
<path class="logol0" d="M225,66.8v5.7H0v-5.7H225z"/>
<g>
	<circle id="svg-ico" class="logol1" cx="5.2" cy="69.6" r="4"/>
	
		<animateMotion  accumulate="none" additive="replace" begin="0s" calcMode="paced" dur="6s" fill="remove" path="M210,0 0 0 210,0" repeatCount="indefinite" restart="always">
		</animateMotion>
</g>
<g>
	<path class="logol2" d="M9.3,38.6V55h-9V12.3h12.4c5.8,0,10.1,1.1,12.9,3.2c2.8,2.1,4.2,5.3,4.2,9.6c0,2.5-0.7,4.7-2.1,6.7
		c-1.4,2-3.3,3.5-5.9,4.6C28.2,46,32.4,52.2,34.4,55h-10L14.1,38.6H9.3z M9.3,31.2h2.9c2.9,0,5-0.5,6.3-1.4c1.4-1,2-2.5,2-4.5
		c0-2-0.7-3.5-2.1-4.3c-1.4-0.9-3.5-1.3-6.5-1.3H9.3V31.2z"/>
	<path class="logol2" d="M38.6,13.9c0-2.9,1.6-4.3,4.8-4.3c3.2,0,4.8,1.4,4.8,4.3c0,1.4-0.4,2.5-1.2,3.2c-0.8,0.8-2,1.2-3.6,1.2
		C40.3,18.3,38.6,16.8,38.6,13.9z M47.9,55H39V22.3h8.9V55z"/>
	<path class="logol2" d="M65,55L52.6,22.3h9.3l6.3,18.6c0.7,2.4,1.1,4.6,1.3,6.7h0.2c0.1-1.9,0.5-4.1,1.3-6.7l6.3-18.6h9.3L74.2,55H65z
		"/>
	<path class="logol2" d="M106,55.6c-5.3,0-9.4-1.4-12.3-4.3c-3-2.9-4.4-7-4.4-12.3c0-5.5,1.4-9.7,4.1-12.7c2.7-3,6.5-4.5,11.3-4.5
		c4.6,0,8.2,1.3,10.8,3.9s3.9,6.3,3.9,10.9v4.3h-21c0.1,2.5,0.8,4.5,2.2,5.9c1.4,1.4,3.4,2.1,5.9,2.1c2,0,3.8-0.2,5.6-0.6
		c1.8-0.4,3.6-1.1,5.5-2v6.9c-1.6,0.8-3.2,1.4-5,1.7C110.8,55.4,108.6,55.6,106,55.6z M104.8,28.1c-1.9,0-3.4,0.6-4.4,1.8
		c-1.1,1.2-1.7,2.9-1.8,5.1H111c0-2.2-0.6-3.9-1.7-5.1C108.2,28.7,106.7,28.1,104.8,28.1z"/>
	<path class="logol2" d="M133.3,38.3l-10.5-16h10.1l6.3,10.4l6.4-10.4h10.1l-10.6,16L156.2,55h-10.1l-6.9-11.2L132.3,55h-10.1
		L133.3,38.3z"/>
	<path class="logol2" d="M167.8,38.3l-10.5-16h10.1l6.3,10.4l6.4-10.4h10.1l-10.6,16L190.8,55h-10.1l-6.9-11.2L166.9,55h-10.1
		L167.8,38.3z"/>
	<path class="logol2" d="M225.4,38.6c0,5.3-1.4,9.5-4.2,12.5c-2.8,3-6.7,4.5-11.7,4.5c-3.1,0-5.9-0.7-8.3-2.1c-2.4-1.4-4.2-3.3-5.5-5.9
		c-1.3-2.6-1.9-5.6-1.9-9c0-5.3,1.4-9.5,4.2-12.4c2.8-3,6.7-4.4,11.7-4.4c3.1,0,5.9,0.7,8.3,2c2.4,1.4,4.2,3.3,5.5,5.9
		C224.7,32.2,225.4,35.2,225.4,38.6z M202.8,38.6c0,3.2,0.5,5.7,1.6,7.3c1.1,1.7,2.8,2.5,5.2,2.5c2.4,0,4.1-0.8,5.1-2.5
		c1-1.6,1.6-4.1,1.6-7.3c0-3.2-0.5-5.7-1.6-7.3c-1.1-1.6-2.8-2.4-5.2-2.4c-2.4,0-4.1,0.8-5.1,2.4S202.8,35.3,202.8,38.6z"/>
</g>
</svg>
